<?xml version="1.0" encoding="utf-8"?>
<!-- Generator: Adobe Illustrator 17.0.0, SVG Export Plug-In . SVG Version: 6.00 Build 0)  -->
<!DOCTYPE svg PUBLIC "-//W3C//DTD SVG 1.1//EN" "http://www.w3.org/Graphics/SVG/1.1/DTD/svg11.dtd">
<svg version="1.1" id="图层_1" xmlns="http://www.w3.org/2000/svg" xmlns:xlink="http://www.w3.org/1999/xlink" x="0px" y="0px"
	 width="32px" height="32px" viewBox="0 0 32 32" enable-background="new 0 0 32 32" xml:space="preserve">
<g>
	<g>
		<g>
			<circle fill="#159E59" cx="6.599" cy="16.996" r="0.414"/>
			<polygon fill="#159E59" points="6.603,18.563 6.603,18.563 6.599,18.564 			"/>
			<path fill="#159E59" d="M6.755,14.891L4.973,13.61c-0.074-0.054-0.247-0.18-0.467-0.18c-0.22,0-0.392,0.125-0.465,0.179
				l-0.012,0.009l-1.761,1.266C2.187,14.942,2,15.108,2,15.399v2.535c0,0.347,0.282,0.63,0.63,0.63l0.651,0h3.322
				c0.018,0,0.037-0.002,0.054-0.005c0.201-0.029,0.355-0.201,0.355-0.41c0-0.229-0.185-0.414-0.414-0.414
				c-0.005,0-0.009,0.001-0.014,0.001l0,0H2.978c-0.014,0-0.028-0.001-0.04-0.004c-0.053-0.012-0.094-0.054-0.106-0.107
				c-0.002-0.009-0.003-0.019-0.003-0.029c0-0.003,0-0.006,0-0.01v-2.015c0-0.072,0.034-0.11,0.093-0.152
				c0.043-0.031,0.475-0.336,1.402-0.989l0.084-0.059l0,0c0,0,0,0,0,0l0.007-0.005l0.001-0.001l0.004-0.003
				c-0.001,0.001-0.002,0.001-0.002,0.002l0.001-0.001c0,0,0.002-0.001,0.005-0.003c0.001-0.001,0.003-0.002,0.005-0.003
				l-0.008,0.006c0.025-0.016,0.057-0.027,0.088-0.027c0.034,0,0.065,0.011,0.091,0.029l0,0l0.003,0.003
				c0,0,0.001,0.001,0.003,0.002c0,0,0,0,0,0v0c0.052,0.037,0.832,0.589,1.253,0.886l0.26,0.184
				c0.031,0.022,0.068,0.062,0.068,0.125v0.283c0,0.228,0.186,0.414,0.414,0.414c0.228,0,0.414-0.186,0.414-0.414v-0.448
				C7.013,15.197,6.919,15.011,6.755,14.891z"/>
			<polygon fill="#159E59" points="4.406,14.371 4.407,14.37 4.406,14.371 			"/>
		</g>
	</g>
	<g>
		<g>
			<path fill="#159E59" d="M18.479,18.564l-0.919-1.255c-0.205-0.253-0.184-0.631,0.047-0.86l0.596-0.592l0.693,0l-0.884,0.878
				c-0.105,0.105-0.113,0.22-0.021,0.333l1.108,1.497H18.479z M16.457,18.564h-0.018h-0.023h-0.004
				c0.036-0.151,0.086-0.449,0.126-0.739l0.001-0.009l-0.008,0.004c-0.695,0.334-1.668,0.623-2.397,0.735V18.55v-0.023V18.51v-0.366
				v-0.015v-0.023v-0.008c0.615-0.103,1.655-0.378,2.455-0.814l0.002-0.001l0-0.003c0.004-0.078,0.007-0.147,0.009-0.212
				c0.002-0.079,0.002-0.158,0.001-0.235l0-0.007l-0.007,0.003c-0.853,0.422-1.883,0.676-2.46,0.766V17.59v-0.023V17.55v-0.366
				v-0.015v-0.023v-0.008c0.607-0.102,1.637-0.373,2.433-0.802l0.003-0.001l0-0.003c-0.017-0.15-0.04-0.288-0.068-0.411
				l-0.001-0.006l-0.005,0.002c-0.688,0.326-1.647,0.608-2.361,0.719v-0.005v-0.023V16.59v-0.366V16.21v-0.023v-0.008
				c0.552-0.093,1.449-0.31,2.19-0.706l0,0h-1.293v-0.431h3.099v0.431h-1.25l0.003,0.006c0.173,0.424,0.223,1.105,0.211,1.602
				c-0.014,0.589-0.097,1.149-0.165,1.484h-0.008h-0.023h-0.014H16.457z M18.552,15.472v-0.81h-3.942v0.81h-0.475v-0.954
				c0-0.158,0.129-0.287,0.287-0.287h1.855v-0.365h0.007h0.024h0.016h0.462h0.016h0.024h0.007v0.365h1.909
				c0.158,0,0.287,0.129,0.287,0.287v0.954H18.552z"/>
			<path fill="#159E59" d="M10.58,18.564c-0.459,0-0.478-0.167-0.478-0.543v-2.432H9.292v0.844h0.5v0.431h-0.5v1.269h0.5v0.431
				H9.297c-0.42,0-0.488-0.133-0.488-0.452v-1.249H8.271v-0.431h0.538v-0.844H8.234l0.383-1.722h0.463l-0.088,0.408h0.8v0.431H8.895
				l-0.1,0.452h1.522c0.119,0,0.258,0.094,0.258,0.216v2.76h1.435v-0.734h-1.107v-0.431h1.107v-0.733h-0.894
				c-0.066,0-0.127-0.03-0.168-0.081c-0.041-0.051-0.056-0.118-0.042-0.182l0.285-1.266h-0.877c-0.095,0-0.18-0.064-0.207-0.155
				l-0.202-0.685h0.49l0.122,0.408h0.77l0.09-0.408h0.477l-0.091,0.408h1.648v0.431h-1.745l-0.247,1.098h0.592v-0.707h0.526v0.707
				h0.875v0.431h-0.875v0.733h0.875v0.431h-0.875v0.734h0.875v0.431H10.58z"/>
		</g>
	</g>
	<g>
		<rect x="20.949" y="15.626" fill="#159E59" width="0.535" height="2.945"/>
		<rect x="22.866" y="14.111" fill="#159E59" width="0.535" height="4.46"/>
		<rect x="23.949" y="15.406" fill="#159E59" width="0.535" height="3.165"/>
		<rect x="20.935" y="13.87" fill="#159E59" width="0.563" height="0.733"/>
		
			<rect x="19.867" y="14.788" transform="matrix(0.3163 0.9487 -0.9487 0.3163 28.2501 -9.1467)" fill="#159E59" width="1.206" height="0.474"/>
		<polygon fill="#159E59" points="19.782,18.57 20.224,17.271 20.724,17.271 20.283,18.57 		"/>
		<polygon fill="#159E59" points="22.633,18.57 22.196,17.271 21.695,17.271 22.131,18.57 		"/>
		
			<rect x="21.736" y="14.422" transform="matrix(0.9486 0.3164 -0.3164 0.9486 5.8826 -6.1801)" fill="#159E59" width="0.474" height="1.206"/>
		<rect x="19.782" y="14.233" fill="#159E59" width="2.855" height="0.44"/>
		<rect x="22.897" y="14.111" fill="#159E59" width="1.771" height="0.44"/>
		<rect x="22.968" y="15.406" fill="#159E59" width="1.7" height="0.44"/>
		<g>
			<path fill="#159E59" d="M28.334,15.66h-0.474v0.252h-1.704v0.44h0.35v0.731c0,0.705-0.363,1.423-0.4,1.488h0.536
				c0.139-0.272,0.301-0.741,0.332-1.299h2.504v0.293v0.041v0.524h-1.011v0.44h1.203c0.16,0,0.291-0.131,0.291-0.291v-0.673v-0.041
				v-0.441c0-0.161-0.131-0.291-0.291-0.291h-2.69v-0.479H30v-0.44h-1.666V15.66z"/>
			<path fill="#159E59" d="M29.709,14.11h-1.637v-0.244h-0.563v0.244h-1.721c-0.16,0-0.291,0.131-0.291,0.291v0.459v0.023v0.601
				h0.001c0,0.05,0,0.102,0,0.158v0.019c-0.001,0.872,0.032,1.774-0.415,2.909h0.52c0.413-1.136,0.377-2.037,0.378-2.909v-0.019
				c0-0.056,0-0.108,0-0.159h3.728c0.16,0,0.291-0.131,0.291-0.291v-0.31V14.86v-0.459C30,14.24,29.869,14.11,29.709,14.11z
				 M29.517,14.883v0.161h-3.535c0-0.178,0-0.263,0-0.263H25.98v-0.231h3.536v0.311V14.883z"/>
		</g>
		<rect x="19.782" y="15.406" fill="#159E59" width="2.86" height="0.44"/>
		<rect x="19.782" y="16.389" fill="#159E59" width="2.851" height="0.44"/>
	</g>
</g>
</svg>
